<?xml version="1.0" encoding="utf-8"?>
<!-- Generator: Adobe Illustrator 22.1.0, SVG Export Plug-In . SVG Version: 6.00 Build 0)  -->
<svg version="1.1" id="Layer_1" xmlns="http://www.w3.org/2000/svg" xmlns:xlink="http://www.w3.org/1999/xlink" x="0px" y="0px"
	 viewBox="0 0 53 53" style="enable-background:new 0 0 53 53;" xml:space="preserve">
<style type="text/css">
	.st0{fill:#8799A5;}
</style>
<path class="st0" d="M2,13.5h49c1.1,0,2-0.9,2-2s-0.9-2-2-2H2c-1.1,0-2,0.9-2,2S0.9,13.5,2,13.5z M2,28.5h49c1.1,0,2-0.9,2-2
	s-0.9-2-2-2H2c-1.1,0-2,0.9-2,2S0.9,28.5,2,28.5z M2,43.5h49c1.1,0,2-0.9,2-2s-0.9-2-2-2H2c-1.1,0-2,0.9-2,2S0.9,43.5,2,43.5z"/>
</svg>
