<svg height="18" viewBox="0 0 18 18" width="18" xmlns="http://www.w3.org/2000/svg"><path d="m23.7256721 23.3940843-4.4363273-4.4539869c1.1409919-1.3100891 1.7661034-2.9578707 1.7661034-4.6731908 0-4.0068899-3.3767471-7.2669066-7.5287469-7.2669066-4.14995423 0-7.5267013 3.2600167-7.5267013 7.2669066 0 4.0080747 3.37674707 7.2680914 7.5267013 7.2680914 1.5582784 0 3.0445544-.4534164 4.3131869-1.3160135l4.4715102 4.4895335c.1869607.1883969.4377416.291482.7081596.291482.2540538 0 .4950162-.094001.6791132-.2650195.3915128-.3625752.4025586-.9629175.0270009-1.3408962zm-10.2267199-14.65214882c3.1434979 0 5.7010478 2.47504832 5.7010478 5.51552062 0 3.0420948-2.5575499 5.5167374-5.7010478 5.5167374-3.1418214 0-5.6989522-2.4746426-5.6989522-5.5167374 0-3.0404723 2.5571308-5.51552062 5.6989522-5.51552062z" fill="#8799a5" fill-rule="evenodd" transform="translate(-6 -7)"/></svg>